<?xml version="1.0" encoding="utf-8"?>
<!-- Generator: Adobe Illustrator 22.1.0, SVG Export Plug-In . SVG Version: 6.00 Build 0)  -->
<svg version="1.1" id="Layer_1" xmlns="http://www.w3.org/2000/svg" xmlns:xlink="http://www.w3.org/1999/xlink" x="0px" y="0px"
	 viewBox="0 0 1170 20.3" style="enable-background:new 0 0 1170 20.3;" xml:space="preserve">
<style type="text/css">
	.st0{fill:#FFFFFF;}
	.st1{fill:#AC9A58;}
	.st2{fill:#857436;}
	.st3{fill:#C7BF91;}
</style>
<title>gt-top-header</title>
<rect x="-0.2" y="0" class="st0" width="1170.2" height="20.4"/>
<polygon class="st1" points="208,20.3 -0.2,20.3 -0.2,0 196.3,0 "/>
<path class="st2" d="M956,16c-1,0-1.4-0.1-1.7-0.5c-0.6-0.6-0.8-1.4-0.8-5.3s0.2-4.7,0.8-5.3c0.3-0.3,0.7-0.5,1.7-0.5h3.6
	c0.6-0.1,1.2,0.1,1.8,0.4c0.5,0.5,0.7,1.1,0.7,3.4h-1.8c0-1.5-0.1-1.9-0.2-2s-0.2-0.2-0.7-0.2h-2.9c-0.5,0-0.6,0-0.7,0.2
	c-0.1,0.2-0.2,0.6-0.2,4s0.1,3.8,0.2,4c0.2,0.2,0.2,0.2,0.7,0.2h2.9c0.5,0,0.6,0,0.7-0.2c0.1-0.2,0.2-0.4,0.2-2.2h1.8
	c0,2.4-0.2,3-0.7,3.5c-0.5,0.4-1.1,0.5-1.8,0.4L956,16z"/>
<path class="st2" d="M969.6,9.5c0.5,0,0.6,0,0.7-0.1c0.1-0.1,0.2-0.4,0.2-1.6s-0.1-1.5-0.2-1.6c-0.1-0.2-0.3-0.1-0.7-0.1h-3.1v3.5
	H969.6z M972.3,14.4h1.3V16H972c-0.7,0-0.9-0.1-1.1-0.3s-0.4-0.7-0.4-3c0-0.9-0.2-1.2-0.4-1.4c-0.2-0.2-0.5-0.3-1.1-0.3h-2.4v3.5
	h1.6V16h-4.8v-1.6h1.5V6h-1.5V4.5h6.9c0.6-0.1,1.2,0.1,1.6,0.5c0.4,0.4,0.6,1,0.6,2.7c0,2-0.5,2.4-1.8,2.6l0,0
	c1.2,0.2,1.6,0.7,1.6,2.4C972.3,13.2,972.3,13.9,972.3,14.4L972.3,14.4z"/>
<polygon class="st2" points="974.7,6.1 974.7,4.5 983.6,4.5 983.6,8 981.9,8 981.9,6.1 977.9,6.1 977.9,9.3 981,9.3 981,10.8 
	977.9,10.8 977.9,14.5 982,14.5 982,12.3 983.8,12.3 983.8,16 974.7,16 974.7,14.5 976.2,14.5 976.2,6.1 974.7,6.1 "/>
<path class="st2" d="M989,10.9h3.1L990.6,6h-0.3L989,10.9z M985,16v-1.6h1.2l3-9.5c0.2-0.5,0.3-0.6,0.8-0.6h1.4
	c0.5,0,0.6,0.1,0.8,0.6l3,9.5h1.2V16h-4.7v-1.6h1.6l-0.6-2h-4l-0.6,2h1.6V16L985,16z"/>
<polygon class="st2" points="1002.9,14.5 1002.9,16 997.9,16 997.9,14.5 999.5,14.5 999.5,6.1 997.1,6.1 997.1,8.3 995.4,8.3 
	995.4,4.5 1005.3,4.5 1005.3,8.3 1003.6,8.3 1003.6,6.1 1001.3,6.1 1001.3,14.5 1002.9,14.5 "/>
<polygon class="st2" points="1011.8,14.5 1011.8,16 1006.8,16 1006.8,14.5 1008.4,14.5 1008.4,6.1 1006.8,6.1 1006.8,4.5 
	1011.8,4.5 1011.8,6.1 1010.2,6.1 1010.2,14.5 1011.8,14.5 "/>
<path class="st2" d="M1021.7,6h-1.5V4.5h4.7V6h-1.5v10h-2.1c-0.5,0-0.6-0.1-0.8-0.5l-3.8-8.9h-0.3v7.9h1.6V16h-4.7v-1.5h1.5V6h-1.5
	V4.5h3.7c0.5,0,0.6,0.1,0.8,0.5l3.7,8.5h0.2L1021.7,6L1021.7,6z"/>
<path class="st2" d="M1033.3,8.1c0-1.4-0.1-1.7-0.2-1.8c-0.1-0.1-0.2-0.2-0.7-0.2h-2.9c-0.5,0-0.6,0-0.7,0.2c-0.1,0.2-0.2,0.6-0.2,4
	s0.1,3.8,0.2,4c0.2,0.2,0.2,0.2,0.7,0.2h3c0.5,0,0.6,0,0.7-0.2c0.1-0.2,0.2-0.6,0.2-2.1v-0.6h-2.4v-1.5h4.2v1.7
	c0,2.5-0.2,3.2-0.7,3.7c-0.5,0.4-1.1,0.6-1.8,0.5h-3.7c-1,0-1.4-0.1-1.7-0.5c-0.6-0.6-0.8-1.4-0.8-5.3s0.2-4.7,0.8-5.3
	c0.3-0.3,0.7-0.5,1.7-0.5h3.6c0.6-0.1,1.2,0.1,1.8,0.4c0.5,0.5,0.7,1.2,0.7,3.2L1033.3,8.1z"/>
<polygon class="st2" points="1048.8,14.5 1048.8,16 1043.8,16 1043.8,14.5 1045.5,14.5 1045.5,6.1 1043.1,6.1 1043.1,8.3 
	1041.4,8.3 1041.4,4.5 1051.3,4.5 1051.3,8.3 1049.6,8.3 1049.6,6.1 1047.2,6.1 1047.2,14.5 1048.8,14.5 "/>
<polygon class="st2" points="1062.3,14.5 1063.9,14.5 1063.9,16 1059.1,16 1059.1,14.5 1060.6,14.5 1060.6,10.8 1056,10.8 
	1056,14.5 1057.5,14.5 1057.5,16 1052.7,16 1052.7,14.5 1054.2,14.5 1054.2,6.1 1052.7,6.1 1052.7,4.5 1057.5,4.5 1057.5,6.1 
	1056,6.1 1056,9.3 1060.6,9.3 1060.6,6.1 1059.1,6.1 1059.1,4.5 1063.9,4.5 1063.9,6.1 1062.3,6.1 1062.3,14.5 "/>
<polygon class="st2" points="1065.2,6.1 1065.2,4.5 1074.2,4.5 1074.2,8 1072.5,8 1072.5,6.1 1068.5,6.1 1068.5,9.3 1071.6,9.3 
	1071.6,10.8 1068.5,10.8 1068.5,14.5 1072.6,14.5 1072.6,12.3 1074.3,12.3 1074.3,16 1065.2,16 1065.2,14.5 1066.8,14.5 1066.8,6.1 
	1065.2,6.1 "/>
<path class="st2" d="M1088.6,6h-1.5V4.5h4.7V6h-1.5v10h-2.1c-0.5,0-0.6-0.1-0.8-0.5l-3.8-8.9h-0.2v7.9h1.5V16h-4.7v-1.5h1.5V6h-1.5
	V4.5h3.8c0.5,0,0.6,0.1,0.8,0.5l3.7,8.5h0.3L1088.6,6L1088.6,6z"/>
<polygon class="st2" points="1092.9,6.1 1092.9,4.5 1101.9,4.5 1101.9,8 1100.2,8 1100.2,6.1 1096.2,6.1 1096.2,9.3 1099.3,9.3 
	1099.3,10.8 1096.2,10.8 1096.2,14.5 1100.3,14.5 1100.3,12.3 1102,12.3 1102,16 1092.9,16 1092.9,14.5 1094.5,14.5 1094.5,6.1 
	1092.9,6.1 "/>
<polygon class="st2" points="1107.7,10.3 1104.8,6.1 1103.5,6.1 1103.5,4.5 1108.3,4.5 1108.3,6 1106.9,6 1108.9,9.1 1109.1,9.1 
	1111.2,6 1109.8,6 1109.8,4.5 1114.3,4.5 1114.3,6.1 1113,6.1 1110.1,10.1 1113.1,14.5 1114.4,14.5 1114.4,16 1109.5,16 
	1109.5,14.5 1111,14.5 1109,11.2 1108.7,11.2 1106.6,14.5 1108.1,14.5 1108.1,16 1103.4,16 1103.4,14.5 1104.8,14.5 1107.7,10.3 "/>
<polygon class="st2" points="1123.1,14.5 1123.1,16 1118.1,16 1118.1,14.5 1119.7,14.5 1119.7,6.1 1117.3,6.1 1117.3,8.3 
	1115.6,8.3 1115.6,4.5 1125.5,4.5 1125.5,8.3 1123.8,8.3 1123.8,6.1 1121.4,6.1 1121.4,14.5 1123.1,14.5 "/>
<path class="st2" d="M1129.6,6.3h0.4c0.3,0,0.6,0,0.6-0.4s-0.3-0.4-0.5-0.4h-0.5V6.3L1129.6,6.3z M1129.3,5.2h0.9
	c0.6,0,0.9,0.2,0.9,0.7c0,0.4-0.3,0.6-0.6,0.7c0,0,0,0,0,0l0.7,1.1h-0.4l-0.7-1.1h-0.4v1.1h-0.4L1129.3,5.2L1129.3,5.2z M1130.1,8.2
	c1,0,1.7-0.8,1.7-1.8c0,0,0,0,0-0.1c0-1-0.8-1.7-1.7-1.7c-1,0-1.7,0.8-1.7,1.7c0,0,0,0,0,0C1128.3,7.4,1129.1,8.2,1130.1,8.2
	C1130,8.2,1130.1,8.2,1130.1,8.2L1130.1,8.2z M1130.1,4.3c1.2,0,2.1,0.9,2.1,2.1c0,1.2-0.9,2.1-2.1,2.1s-2.1-0.9-2.1-2.1
	c0,0,0,0,0,0C1128,5.2,1128.9,4.3,1130.1,4.3C1130.1,4.3,1130.1,4.3,1130.1,4.3L1130.1,4.3z"/>
<polygon class="st3" points="212,20.3 200.2,-0.2 198.5,-0.2 210.3,20.3 "/>
<polygon class="st3" points="216.1,20.3 204.3,-0.2 202.5,-0.2 214.3,20.3 "/>
<polygon class="st3" points="220.2,20.3 208.4,-0.2 206.6,-0.2 218.4,20.3 "/>
<polygon class="st3" points="224.3,20.3 212.5,-0.1 210.7,-0.1 222.5,20.3 "/>
<polygon class="st3" points="228.4,20.3 216.6,-0.1 214.9,-0.1 226.6,20.3 "/>
<polygon class="st3" points="232.5,20.3 220.7,-0.1 219,-0.1 230.7,20.3 "/>
<polygon class="st3" points="236.7,20.3 224.9,-0.1 223.1,-0.1 234.9,20.3 "/>
<polygon class="st3" points="240.7,20.3 228.9,-0.1 227.2,-0.1 239,20.3 "/>
<polygon class="st3" points="244.8,20.3 233,-0.1 231.3,-0.1 243.1,20.3 "/>
<polygon class="st3" points="248.9,20.3 237.2,-0.1 235.4,-0.1 247.2,20.3 "/>
<polygon class="st3" points="253,20.3 241.3,0 239.5,-0.1 251.3,20.3 "/>
<polygon class="st3" points="257.1,20.3 245.4,0 243.6,-0.1 255.4,20.3 "/>
<polygon class="st3" points="261.3,20.3 249.5,-0.1 247.7,-0.2 259.5,20.3 "/>
<polygon class="st3" points="265.4,20.3 253.6,-0.1 251.8,-0.1 263.6,20.3 "/>
<polygon class="st3" points="269.5,20.3 257.7,-0.1 255.9,-0.1 267.7,20.3 "/>
<polygon class="st3" points="273.6,20.3 261.8,-0.1 260,-0.1 271.8,20.3 "/>
<polygon class="st3" points="277.7,20.3 265.9,-0.1 264.1,-0.1 275.9,20.3 "/>
<polygon class="st3" points="281.8,20.3 270,-0.1 268.2,-0.1 280,20.3 "/>
<polygon class="st3" points="285.9,20.3 274.1,-0.1 272.4,-0.1 284.2,20.3 "/>
<polygon class="st3" points="290,20.3 278.2,-0.1 276.5,-0.1 288.3,20.3 "/>
<polygon class="st3" points="294.1,20.3 282.3,-0.1 280.6,-0.1 292.4,20.3 "/>
<polygon class="st3" points="298.2,20.3 286.4,-0.1 284.7,-0.1 296.5,20.3 "/>
<polygon class="st3" points="302.3,20.3 290.6,-0.1 288.8,-0.1 300.6,20.3 "/>
<polygon class="st3" points="306.4,20.3 294.7,-0.1 292.9,-0.1 304.7,20.3 "/>
<polygon class="st3" points="310.6,20.3 298.8,-0.1 297.1,-0.1 308.8,20.3 "/>
<polygon class="st3" points="314.6,20.3 302.9,-0.1 301.1,-0.1 312.9,20.3 "/>
<polygon class="st3" points="318.7,20.3 307,-0.1 305.2,-0.1 317,20.3 "/>
<polygon class="st3" points="322.8,20.3 311.1,-0.1 309.3,-0.1 321.1,20.3 "/>
<polygon class="st3" points="326.9,20.3 315.2,0 313.5,0 325.2,20.3 "/>
<polygon class="st3" points="331,20.3 319.3,0 317.6,0 329.3,20.3 "/>
<polygon class="st3" points="335.2,20.3 323.4,-0.1 321.7,-0.1 333.5,20.3 "/>
<polygon class="st3" points="339.3,20.3 327.5,-0.1 325.8,-0.1 337.5,20.3 "/>
<polygon class="st3" points="343.4,20.3 331.6,-0.1 329.9,-0.1 341.6,20.3 "/>
<polygon class="st3" points="347.5,20.3 335.7,-0.1 334,-0.1 345.7,20.3 "/>
<polygon class="st3" points="351.6,20.3 339.9,0 338.1,0 349.8,20.3 "/>
<polygon class="st3" points="355.7,20.3 344,0 342.2,0 353.9,20.3 "/>
<polygon class="st3" points="359.9,20.3 348.2,0.1 346.5,0.1 358.1,20.3 "/>
<polygon class="st3" points="363.9,20.3 352.3,0.1 350.5,0.1 362.2,20.3 "/>
<polygon class="st3" points="368,20.3 356.4,0.1 354.6,0.1 366.3,20.3 "/>
<polygon class="st3" points="372.1,20.3 360.5,0.1 358.7,0.1 370.4,20.3 "/>
<polygon class="st3" points="376.2,20.3 364.6,0.2 362.9,0.2 374.5,20.3 "/>
<polygon class="st3" points="380.3,20.3 368.5,0 366.8,0 378.5,20.3 "/>
<polygon class="st3" points="384.4,20.3 372.7,-0.1 370.9,-0.1 382.7,20.3 "/>
<polygon class="st3" points="388.5,20.3 376.8,-0.1 375,-0.1 386.8,20.3 "/>
<polygon class="st3" points="392.6,20.3 380.9,-0.1 379.1,-0.1 390.9,20.3 "/>
<polygon class="st3" points="396.7,20.3 385,0 383.2,-0.1 395,20.3 "/>
<polygon class="st3" points="400.8,20.3 389.1,0 387.3,0 399.1,20.3 "/>
<polygon class="st3" points="404.9,20.3 393.2,0 391.4,0 403.2,20.3 "/>
<polygon class="st3" points="409.1,20.3 397.3,-0.1 395.5,-0.1 407.3,20.3 "/>
<polygon class="st3" points="413.2,20.3 401.4,0 399.7,0 411.4,20.3 "/>
<polygon class="st3" points="417.3,20.3 405.5,0 403.8,0 415.5,20.3 "/>
<polygon class="st3" points="421.4,20.3 409.6,0 407.9,0 419.6,20.3 "/>
<polygon class="st3" points="425.5,20.3 413.8,0 412,0 423.7,20.3 "/>
<polygon class="st3" points="429.6,20.3 417.9,0 416.1,0 427.8,20.3 "/>
<polygon class="st3" points="433.7,20.3 422,0 420.2,0 432,20.3 "/>
<polygon class="st3" points="437.8,20.3 426.1,0 424.3,0 436.1,20.3 "/>
<polygon class="st3" points="441.9,20.3 430.2,0 428.4,0 440.2,20.3 "/>
<polygon class="st3" points="446,20.3 434.3,0 432.5,0 444.3,20.3 "/>
<polygon class="st3" points="450.1,20.3 438.4,0 436.7,0 448.4,20.3 "/>
<polygon class="st3" points="454.2,20.3 442.5,0 440.8,0 452.5,20.3 "/>
<polygon class="st3" points="458.4,20.3 446.7,0 444.9,0 456.6,20.3 "/>
<polygon class="st3" points="462.4,20.3 450.7,0 449,0 460.7,20.3 "/>
<polygon class="st3" points="466.5,20.3 454.8,0 453.1,0 464.8,20.3 "/>
<polygon class="st3" points="470.6,20.3 458.9,0 457.2,0 468.9,20.3 "/>
<polygon class="st3" points="474.8,20.3 463.1,0.1 461.3,0.1 473,20.3 "/>
<polygon class="st3" points="478.9,20.3 467.2,0.1 465.4,0.1 477.1,20.3 "/>
<polygon class="st3" points="483,20.3 471.3,0 469.6,0 481.3,20.3 "/>
<polygon class="st3" points="487.1,20.3 475.4,0 473.6,0 485.3,20.3 "/>
<polygon class="st3" points="491.2,20.3 479.5,0 477.7,0 489.4,20.3 "/>
<polygon class="st3" points="495.3,20.3 483.6,0 481.9,0 493.5,20.3 "/>
<polygon class="st3" points="499.4,20.3 487.7,0.1 486,0.1 497.7,20.3 "/>
<polygon class="st3" points="503.5,20.3 491.8,0.1 490.1,0.1 501.7,20.3 "/>
<polygon class="st3" points="507.8,20.3 496,-0.1 494.3,-0.1 506,20.3 "/>
<polygon class="st3" points="511.9,20.3 500.1,-0.1 498.4,-0.1 510.1,20.3 "/>
<polygon class="st3" points="516,20.3 504.2,-0.1 502.5,-0.1 514.2,20.3 "/>
<polygon class="st3" points="520.1,20.3 508.3,-0.1 506.6,-0.1 518.3,20.3 "/>
<polygon class="st3" points="524.2,20.3 512.4,0 510.7,0 522.4,20.3 "/>
<polygon class="st3" points="528.3,20.3 516.5,0 514.8,0 526.5,20.3 "/>
<polygon class="st3" points="532.4,20.3 520.7,-0.1 518.9,-0.1 530.7,20.3 "/>
<polygon class="st3" points="536.5,20.3 524.8,-0.1 523,-0.1 534.8,20.3 "/>
<polygon class="st3" points="540.6,20.3 528.9,-0.1 527.1,-0.1 538.9,20.3 "/>
<polygon class="st3" points="544.7,20.3 533,-0.1 531.2,-0.1 543,20.3 "/>
<polygon class="st3" points="548.8,20.3 537.1,0 535.3,0 547.1,20.3 "/>
<polygon class="st3" points="552.9,20.3 541.2,0 539.4,0 551.2,20.3 "/>
<polygon class="st3" points="557.1,20.3 545.3,-0.1 543.5,-0.1 555.3,20.3 "/>
<polygon class="st3" points="561.2,20.3 549.4,-0.1 547.6,-0.1 559.4,20.3 "/>
<polygon class="st3" points="565.3,20.3 553.5,-0.1 551.7,-0.1 563.5,20.3 "/>
<polygon class="st3" points="569.4,20.3 557.6,-0.1 555.8,-0.1 567.6,20.3 "/>
<polygon class="st3" points="573.5,20.3 561.7,-0.1 560,-0.1 571.7,20.3 "/>
<polygon class="st3" points="577.6,20.3 565.8,-0.1 564.1,-0.1 575.8,20.3 "/>
<polygon class="st3" points="581.7,20.3 570,-0.1 568.2,-0.1 580,20.3 "/>
<polygon class="st3" points="585.8,20.3 574,-0.1 572.3,-0.1 584.1,20.3 "/>
<polygon class="st3" points="589.9,20.3 578.1,-0.1 576.4,-0.1 588.2,20.3 "/>
<polygon class="st3" points="594,20.3 582.2,-0.1 580.5,-0.1 592.3,20.3 "/>
<polygon class="st3" points="598.1,20.3 586.4,-0.1 584.6,-0.1 596.4,20.3 "/>
<polygon class="st3" points="602.2,20.3 590.4,-0.1 588.6,-0.1 600.4,20.3 "/>
<polygon class="st3" points="606.3,20.3 594.5,-0.1 592.8,-0.1 604.6,20.3 "/>
<polygon class="st3" points="610.4,20.3 598.6,-0.1 596.9,-0.1 608.7,20.3 "/>
<polygon class="st3" points="614.5,20.3 602.7,-0.1 601,-0.1 612.8,20.3 "/>
<polygon class="st3" points="618.6,20.3 606.8,-0.1 605.1,-0.1 616.9,20.3 "/>
<polygon class="st3" points="622.7,20.3 611,-0.1 609.2,-0.1 621,20.3 "/>
<polygon class="st3" points="626.8,20.3 615.1,-0.1 613.3,-0.1 625.1,20.3 "/>
<polygon class="st3" points="631,20.3 619.2,-0.1 617.4,-0.1 629.2,20.3 "/>
<polygon class="st3" points="635.1,20.3 623.3,-0.1 621.5,-0.1 633.3,20.3 "/>
<polygon class="st3" points="639.2,20.3 627.4,-0.1 625.6,-0.1 637.4,20.3 "/>
<polygon class="st3" points="643.3,20.3 631.5,-0.1 629.7,-0.1 641.5,20.3 "/>
<polygon class="st3" points="647.4,20.3 635.6,-0.1 633.9,-0.1 645.6,20.3 "/>
<polygon class="st3" points="651.5,20.3 639.7,-0.1 638,-0.1 649.7,20.3 "/>
<polygon class="st3" points="655.6,20.3 643.8,-0.1 642.1,-0.1 653.8,20.3 "/>
<polygon class="st3" points="659.7,20.3 647.9,-0.1 646.1,-0.1 657.9,20.3 "/>
<polygon class="st3" points="663.8,20.3 652,-0.1 650.2,-0.1 662,20.3 "/>
<polygon class="st3" points="667.9,20.3 656.1,0 654.3,0 666.1,20.3 "/>
<polygon class="st3" points="671.9,20.3 660.2,0 658.5,0 670.2,20.3 "/>
<polygon class="st3" points="676.1,20.3 664.3,0 662.6,0 674.3,20.3 "/>
<polygon class="st3" points="680.2,20.3 668.5,-0.1 666.7,-0.1 678.5,20.3 "/>
<polygon class="st3" points="684.3,20.3 672.6,0 670.8,-0.1 682.5,20.3 "/>
<polygon class="st3" points="688.5,20.3 676.7,0 675,0 686.7,20.3 "/>
<polygon class="st3" points="692.6,20.3 680.8,0 679.1,0 690.8,20.3 "/>
<polygon class="st3" points="696.7,20.3 685,0 683.2,0 694.9,20.3 "/>
<polygon class="st3" points="700.8,20.3 689.1,0 687.3,0 699,20.3 "/>
<polygon class="st3" points="704.9,20.3 693.1,-0.1 691.4,-0.1 703.2,20.3 "/>
<polygon class="st3" points="709,20.3 697.2,-0.1 695.5,-0.1 707.3,20.3 "/>
<polygon class="st3" points="713.1,20.3 701.3,-0.1 699.6,-0.1 711.3,20.3 "/>
<polygon class="st3" points="717.2,20.3 705.4,-0.1 703.7,-0.1 715.4,20.3 "/>
<polygon class="st3" points="721.3,20.3 709.6,0 707.8,0 719.6,20.3 "/>
<polygon class="st3" points="725.4,20.3 713.7,0 711.9,0 723.7,20.3 "/>
<polygon class="st3" points="729.6,20.3 717.8,-0.1 716.1,-0.1 727.8,20.3 "/>
<polygon class="st3" points="733.6,20.3 721.9,-0.1 720.1,-0.1 731.9,20.3 "/>
<polygon class="st3" points="737.7,20.3 726,-0.1 724.2,-0.1 736,20.3 "/>
<polygon class="st3" points="741.8,20.3 730.1,-0.1 728.3,-0.1 740.1,20.3 "/>
<polygon class="st3" points="746,20.3 734.2,0 732.5,0 744.2,20.3 "/>
<polygon class="st3" points="749.9,20.3 738.1,-0.1 736.4,-0.1 748.2,20.3 "/>
<polygon class="st3" points="754.1,20.3 742.3,-0.1 740.5,-0.1 752.3,20.3 "/>
<polygon class="st3" points="758.1,20.3 746.4,-0.1 744.6,-0.1 756.4,20.3 "/>
<polygon class="st3" points="762.2,20.3 750.5,-0.1 748.7,-0.1 760.5,20.3 "/>
<polygon class="st3" points="766.3,20.3 754.6,-0.1 752.8,-0.1 764.6,20.3 "/>
<polygon class="st3" points="770.4,20.3 758.7,0 756.9,0 768.7,20.3 "/>
<polygon class="st3" points="774.5,20.3 762.8,0 761,0 772.8,20.3 "/>
<polygon class="st3" points="778.7,20.3 766.9,-0.1 765.2,-0.1 776.9,20.3 "/>
<polygon class="st3" points="782.8,20.3 771,-0.1 769.3,-0.1 781,20.3 "/>
<polygon class="st3" points="786.9,20.3 775.1,-0.1 773.4,-0.1 785.1,20.3 "/>
<polygon class="st3" points="791,20.3 779.2,-0.1 777.5,-0.1 789.2,20.3 "/>
<polygon class="st3" points="795.1,20.3 783.3,0 781.6,0 793.3,20.3 "/>
<polygon class="st3" points="799.2,20.3 787.4,0 785.7,0 797.4,20.3 "/>
<polygon class="st3" points="803.5,20.3 791.7,-0.2 789.9,-0.2 801.8,20.3 "/>
<polygon class="st3" points="807.6,20.3 795.8,-0.2 794,-0.2 805.8,20.3 "/>
<polygon class="st3" points="811.7,20.3 799.9,-0.2 798.1,-0.2 809.9,20.3 "/>
<polygon class="st3" points="815.8,20.3 804,-0.1 802.2,-0.2 814,20.3 "/>
<polygon class="st3" points="819.9,20.3 808.1,-0.1 806.4,-0.1 818.1,20.3 "/>
<polygon class="st3" points="824,20.3 812.3,0 810.5,-0.1 822.3,20.3 "/>
<polygon class="st3" points="828.2,20.3 816.4,-0.1 814.7,-0.1 826.4,20.3 "/>
<polygon class="st3" points="832.3,20.3 820.5,-0.1 818.7,-0.1 830.5,20.3 "/>
<polygon class="st3" points="836.4,20.3 824.6,-0.1 822.8,-0.1 834.6,20.3 "/>
<polygon class="st3" points="840.5,20.3 828.7,-0.1 826.9,-0.1 838.7,20.3 "/>
<polygon class="st3" points="844.6,20.3 832.8,0 831.1,0 842.8,20.3 "/>
<polygon class="st3" points="848.7,20.3 836.9,0 835.2,0 846.9,20.3 "/>
<polygon class="st3" points="852.8,20.3 841,-0.1 839.3,-0.1 851.1,20.3 "/>
<polygon class="st3" points="856.9,20.3 845.1,-0.1 843.4,-0.1 855.1,20.3 "/>
<polygon class="st3" points="861,20.3 849.2,-0.1 847.4,-0.1 859.2,20.3 "/>
<polygon class="st3" points="865.1,20.3 853.3,-0.1 851.6,-0.1 863.3,20.3 "/>
<polygon class="st3" points="869.2,20.3 857.4,-0.1 855.7,-0.1 867.5,20.3 "/>
<polygon class="st3" points="873.3,20.3 861.5,-0.1 859.8,-0.1 871.5,20.3 "/>
<polygon class="st3" points="877.5,20.3 865.7,-0.1 863.9,-0.1 875.7,20.3 "/>
<polygon class="st3" points="881.5,20.3 869.8,-0.1 868,-0.1 879.8,20.3 "/>
<polygon class="st3" points="885.7,20.3 873.9,-0.1 872.2,-0.1 883.9,20.3 "/>
<polygon class="st3" points="889.8,20.3 878,-0.1 876.3,-0.1 888,20.3 "/>
<polygon class="st3" points="893.9,20.3 882.2,0 880.4,0 892.1,20.3 "/>
<polygon class="st3" points="898,20.3 886.3,0 884.5,0 896.2,20.3 "/>
<polygon class="st3" points="902.2,20.3 890.4,-0.2 888.6,-0.2 900.4,20.3 "/>
<polygon class="st3" points="906.3,20.3 894.4,-0.2 892.7,-0.2 904.5,20.3 "/>
<polygon class="st3" points="910.4,20.3 898.5,-0.2 896.8,-0.2 908.6,20.3 "/>
<polygon class="st3" points="914.5,20.3 902.7,-0.2 900.9,-0.2 912.7,20.3 "/>
<polygon class="st3" points="918.6,20.3 906.8,-0.1 905,-0.1 916.8,20.3 "/>
<polygon class="st3" points="922.7,20.3 910.9,-0.1 909.1,-0.1 920.9,20.3 "/>
<polygon class="st3" points="927,20.4 915.3,0 913.5,0 925.3,20.4 "/>
</svg>
