<?xml version="1.0" encoding="utf-8"?>
<!-- Generator: Adobe Illustrator 23.0.1, SVG Export Plug-In . SVG Version: 6.00 Build 0)  -->
<svg version="1.1" id="Layer_1" xmlns="http://www.w3.org/2000/svg" xmlns:xlink="http://www.w3.org/1999/xlink" x="0px" y="0px"
	 viewBox="0 0 340 28.5" style="enable-background:new 0 0 340 28.5;" xml:space="preserve">
<style type="text/css">
	.st0{fill:#857437;}
</style>
<path class="st0" d="M7.3,24.9c-1.8,0-2.5-0.2-3.2-0.9c-1.1-1.1-1.5-2.6-1.5-9.9c0-7.2,0.4-8.8,1.5-9.9c0.6-0.6,1.3-0.9,3.2-0.9H14
	c1.7,0,2.7,0.2,3.3,0.8c1,1,1.2,2.1,1.3,6.2h-3.3c0-2.7-0.2-3.5-0.4-3.7s-0.4-0.3-1.3-0.3H8C7,6.5,6.8,6.6,6.6,6.8
	C6.3,7.1,6.2,8,6.2,14.2s0.1,7.1,0.4,7.4C6.8,21.8,7,21.8,8,21.8h5.5c0.9,0,1.1-0.1,1.3-0.3c0.2-0.2,0.3-0.8,0.4-4h3.4
	c-0.1,4.4-0.3,5.5-1.3,6.6c-0.6,0.6-1.7,0.8-3.3,0.8H7.3z"/>
<path class="st0" d="M37.9,21.9h2.4v3h-3.1c-1.3,0-1.7-0.2-2.1-0.6c-0.5-0.5-0.7-1.3-0.8-5.5c-0.1-1.7-0.3-2.3-0.7-2.7
	c-0.5-0.5-1-0.6-2.1-0.6H27V22h3v2.9h-9.1V22h2.9V6.3h-2.9V3.4h13c1.4,0,2.4,0.2,3,0.9c0.8,0.8,1.2,1.9,1.2,5.1
	c0,3.8-0.9,4.5-3.3,4.9v0.1c2.3,0.4,2.9,1.3,3,4.4C37.8,19.7,37.9,21,37.9,21.9z M32.9,12.8c0.9,0,1.2-0.1,1.3-0.2
	c0.3-0.3,0.4-0.7,0.4-2.9s-0.1-2.7-0.4-3c-0.2-0.2-0.5-0.2-1.3-0.2h-5.8v6.4h5.8V12.8z"/>
<path class="st0" d="M42.3,6.3V3.4h16.8v6.5h-3.2V6.3h-7.4v6h5.8v2.8h-5.8V22h7.7v-4h3.2v6.9h-17V22h2.9V6.3H42.3z"/>
<path class="st0" d="M61.5,24.9V22h2.3l5.5-17.6c0.3-0.9,0.6-1,1.5-1h2.6c0.9,0,1.2,0.2,1.5,1L80.4,22h2.3v2.9h-8.9V22h2.9l-1.1-3.8
	c-1.9,0-5.5,0-7.4,0L67.1,22H70v2.9H61.5z M69,15.4h5.8l-2.7-9h-0.5L69,15.4z"/>
<path class="st0" d="M95.2,22v2.9h-9.3V22h3V6.3h-4.4v4.2h-3.2V3.4h18.6v7.1h-3.2V6.3h-4.4V22H95.2z"/>
<path class="st0" d="M111.8,22v2.9h-9.3V22h3V6.3h-3V3.4h9.3v2.9h-3V22H111.8z"/>
<path class="st0" d="M130.4,6.3h-2.9V3.4h8.8v2.9h-2.8v18.5h-3.9c-0.9,0-1.1-0.2-1.4-1L121,7.3h-0.5V22h2.9v2.9h-8.9V22h2.9V6.3
	h-2.9V3.4h7.1c0.9,0,1.1,0.2,1.4,1l6.9,15.7h0.5V6.3z"/>
<path class="st0" d="M152.1,10.2c-0.1-2.5-0.2-3.2-0.4-3.4c-0.2-0.2-0.4-0.3-1.3-0.3h-5.5c-0.9,0-1.2,0.1-1.4,0.3
	c-0.3,0.3-0.4,1.2-0.4,7.4s0.1,7.1,0.4,7.4c0.2,0.2,0.4,0.3,1.4,0.3h5.7c0.9,0,1.2-0.1,1.4-0.3c0.2-0.2,0.4-1.2,0.4-3.9v-1.1h-4.5
	v-2.8h7.8V17c0,4.7-0.3,6-1.3,7c-0.7,0.7-1.6,0.9-3.3,0.9h-6.9c-1.8,0-2.5-0.2-3.2-0.9c-1.1-1.1-1.5-2.6-1.5-9.9
	c0-7.2,0.4-8.8,1.5-9.9c0.6-0.6,1.3-0.9,3.2-0.9h6.7c1.7,0,2.7,0.2,3.3,0.8c1,1,1.2,2.1,1.3,5.9h-3.4V10.2z"/>
<path class="st0" d="M181.2,22v2.9h-9.3V22h3V6.3h-4.4v4.2h-3.2V3.4h18.6v7.1h-3.2V6.3h-4.4V22H181.2z"/>
<path class="st0" d="M206.6,22h2.9v2.9h-9V22h2.9v-6.8h-8.7V22h2.9v2.9h-9V22h2.9V6.3h-2.9V3.4h9v2.9h-2.9v6h8.7v-6h-2.9V3.4h9v2.9
	h-2.9V22z"/>
<path class="st0" d="M212,6.3V3.4h16.8v6.5h-3.2V6.3h-7.4v6h5.8v2.8h-5.8V22h7.7v-4h3.2v6.9h-17V22h2.9V6.3H212z"/>
<path class="st0" d="M255.8,6.3H253V3.4h8.8v2.9H259v18.5h-4c-0.9,0-1.1-0.2-1.4-1l-7.2-16.5h-0.5V22h2.9v2.9H240V22h2.9V6.3H240
	V3.4h7.1c0.9,0,1.1,0.2,1.4,1l6.9,15.7h0.5L255.8,6.3L255.8,6.3z"/>
<path class="st0" d="M263.9,6.3V3.4h16.8v6.5h-3.2V6.3H270v6h5.8v2.8H270V22h7.7v-4h3.2v6.9h-17V22h2.9V6.3H263.9z"/>
<path class="st0" d="M291.6,14.2l-5.5-7.8h-2.5v-3h8.9v2.8H290l3.7,5.7h0.4l4-5.7h-2.6V3.4h8.5v2.9h-2.5l-5.5,7.5l5.6,8.1h2.5v2.9
	h-9.2V22h2.9l-3.9-6h-0.4l-4.1,6h2.9v2.8h-8.8V22h2.5L291.6,14.2z"/>
<path class="st0" d="M320.3,22v2.9H311V22h3V6.3h-4.4v4.2h-3.2V3.4H325v7.1h-3.2V6.3h-4.4V22H320.3z"/>
<g>
	<path class="st0" d="M333.7,3.1c2.2,0,4.1,1.8,4.1,4.1c0,2.4-1.9,4.1-4.1,4.1c-2.3,0-4.1-1.8-4.1-4.1
		C329.5,4.9,331.4,3.1,333.7,3.1z M333.7,10.7c1.9,0,3.4-1.5,3.4-3.5s-1.5-3.5-3.4-3.5s-3.4,1.5-3.4,3.5
		C330.3,9.2,331.7,10.7,333.7,10.7z M332,4.8h1.9c1.1,0,1.7,0.5,1.7,1.4s-0.5,1.2-1.3,1.3l1.4,2.1h-0.8l-1.3-2.1h-0.8v2.1H332V4.8z
		 M332.8,6.9h0.8c0.7,0,1.3,0,1.3-0.8c0-0.6-0.5-0.7-1.1-0.7h-1L332.8,6.9L332.8,6.9z"/>
</g>
</svg>
