<?xml version="1.0" encoding="utf-8"?>
<!-- Generator: Adobe Illustrator 21.1.0, SVG Export Plug-In . SVG Version: 6.00 Build 0)  -->
<svg version="1.1" id="Layer_1" xmlns="http://www.w3.org/2000/svg" xmlns:xlink="http://www.w3.org/1999/xlink" x="0px" y="0px"
	 viewBox="0 0 100 75" style="enable-background:new 0 0 100 75;" xml:space="preserve">
<style type="text/css">
	.st0{fill:#efefef;}
</style>
<g>
	<path class="st0" d="M28.5,68c7.9,0,13.5-6.6,13.5-14.3c0-6.9-5.2-12.5-12.8-12.5c-2.2,0-4.9,0.7-6.6,2.2l-1-0.5
		c1.2-10.8,11.3-24.4,28-32.5l-1.7-3C23.4,18.3,11.8,32.1,11.8,49.5C11.8,60.6,18.2,68,28.5,68 M70.9,68c7.9,0,13.5-6.6,13.5-14.3
		c0-6.9-5.2-12.5-12.8-12.5c-2.2,0-4.9,0.7-6.6,2.2l-1-0.5c1.2-10.8,11.3-24.4,28-32.5l-1.7-3C65.7,18.3,54.1,32.1,54.1,49.5
		C54.1,60.6,60.5,68,70.9,68"/>
</g>
</svg>